<svg xmlns="http://www.w3.org/2000/svg" width="21" height="21" viewBox="0 0 21 21"><g transform="translate(-328 -490)"><rect width="21" height="21" rx="5" transform="translate(328 490)" fill="#6191f3"/><path d="M16.72,11.429a.63.63,0,0,0,0,.886l2.929,2.934H8.5a.626.626,0,0,0,0,1.253H19.639L16.71,19.435a.634.634,0,0,0,0,.886.624.624,0,0,0,.882,0l3.97-4h0a.7.7,0,0,0,.13-.2.6.6,0,0,0,.048-.241.628.628,0,0,0-.178-.438l-3.97-4A.614.614,0,0,0,16.72,11.429Z" transform="translate(323.249 484.498)" fill="#fff"/></g></svg>